<?xml version="1.0" encoding="utf-8"?>
<!-- Generator: Adobe Illustrator 24.3.0, SVG Export Plug-In . SVG Version: 6.00 Build 0)  -->
<svg version="1.1" id="Layer_1" xmlns="http://www.w3.org/2000/svg" xmlns:xlink="http://www.w3.org/1999/xlink" x="0px" y="0px"
	 viewBox="0 0 576 576" enable-background="new 0 0 576 576" xml:space="preserve">
<path fill="#F5DBC9" d="M382.981,297.035c0,32.466-41.983,58.786-93.773,58.786c-51.794,0-93.777-26.32-93.777-58.786
	c0-32.466,41.983-38.73,93.777-38.73C340.999,258.305,382.981,264.569,382.981,297.035z M289.206,435.14
	c-11.218,1.22-8.754,34.327-5.884,57.362c1.491,0.213,3.004,0.325,4.536,0.325c0.452,0,0.9-0.026,1.348-0.047
	c0.448,0.022,0.896,0.047,1.348,0.047c1.532,0,3.045-0.112,4.536-0.325C297.96,469.467,300.424,436.36,289.206,435.14z"/>
<path fill="#F8B4BA" d="M398.202,105.911c6.599-7.786,14.622-28.392,23.747-30.834c3.953-0.984,6.921-0.109,9.324,1.809
	c8.955,76.73-52.662,68.326-52.662,68.326l-11.632-17.133C366.979,128.079,390.47,115.094,398.202,105.911z M180.21,105.911
	c-6.599-7.786-14.622-28.392-23.747-30.834c-3.953-0.984-6.921-0.109-9.324,1.809c-14.899,85.158,52.684,68.326,52.684,68.326
	l11.611-17.133C211.433,128.079,187.943,115.094,180.21,105.911z"/>
<path fill-rule="evenodd" clip-rule="evenodd" fill="#FACA3E" d="M431.273,76.886c-2.403-1.918-5.372-2.793-9.324-1.809
	c-9.125,2.442-16.708,23.444-23.747,30.834c-8.067,8.471-19.007,14.844-31.227,22.159c4.347,5.302,8.247,11.051,11.636,17.175
	c9.526,17.217,15.011,37.407,15.011,58.999c0,26.221-8.092,50.37-21.685,69.644c-15.794-12.584-46.914-15.583-82.728-15.583
	c-35.813,0-66.931,2.998-82.727,15.579c-13.593-19.273-21.69-43.419-21.69-69.64c0-29.273,10.08-55.967,26.647-76.174
	c-10.8-6.414-23.495-12.976-31.227-22.159c-6.599-7.786-14.622-28.392-23.747-30.834c-3.953-0.984-6.921-0.109-9.324,1.809
	c0.147-1.521,0.314-3.064,0.513-4.645c0.019-0.124,0.031-0.241,0.046-0.367c2.469-18.914,17.935-8.939,30.796,3.719
	c6.719,6.609,12.73,13.949,15.808,18.288c6.871,9.487,15.975,18.619,26.627,23.984c4.927-4.66,10.259-8.819,15.926-12.417
	l-11.13-21.284c3.332-0.312,6.767-1.026,10.2-2.191c6.309-2.14,11.715-5.476,15.814-9.439l9.53,21.678
	c8.892-2.694,18.26-4.136,27.937-4.136c9.961,0,19.595,1.53,28.72,4.378l9.636-21.92c4.099,3.963,9.505,7.299,15.814,9.439
	c3.433,1.165,6.867,1.879,10.199,2.191l-11.352,21.71c5.419,3.499,10.527,7.514,15.26,11.991
	c10.652-5.365,19.756-14.497,26.627-23.984c3.078-4.339,9.089-11.68,15.808-18.288c12.861-12.658,28.327-22.633,30.796-3.719
	c0.014,0.126,0.027,0.242,0.046,0.367l0,0C430.959,73.822,431.127,75.365,431.273,76.886z M289.208,355.821
	c-14.867,0-28.923-2.172-41.412-6.032c-8.684,32.339-32.077,103.347-20.927,145.438c5.132,0.049,10.275-0.208,15.383,0.394
	c5.457,0.643,10.901,1.925,16.167,3.47c9.788,2.872,19.305,7.107,27.629,13.052c-1.72-12.74-12.343-75.317,3.159-77.003
	c15.502,1.686,4.879,64.263,3.159,77.003c8.324-5.946,17.841-10.18,27.629-13.052c5.266-1.545,10.71-2.827,16.167-3.47
	c5.107-0.602,10.251-0.345,15.383-0.394c11.15-42.091-12.243-113.098-20.927-145.437
	C318.128,353.649,304.074,355.821,289.208,355.821z"/>
<path fill="#231F20" d="M259.198,239.158c-1.606,8.86-10.101,14.757-18.948,13.132c-8.868-1.597-14.753-10.091-13.137-18.928
	c1.589-8.874,10.09-14.744,18.945-13.152C254.898,221.826,260.794,230.292,259.198,239.158z M338.166,220.21
	c-8.854-1.592-17.357,4.278-18.945,13.152c-1.616,8.837,4.267,17.331,13.136,18.928c8.847,1.625,17.342-4.272,18.948-13.132
	C352.901,230.292,347.007,221.826,338.166,220.21z"/>
<path fill="#F1F2F2" d="M239.036,243.89c-0.328,1.766-2.014,2.945-3.782,2.636c-1.776-0.345-2.952-2.018-2.624-3.817
	c0.31-1.768,1.999-2.928,3.771-2.617C238.193,240.414,239.349,242.11,239.036,243.89z M250.352,224.563
	c-3.266-0.585-6.403,1.584-6.991,4.841c-0.602,3.285,1.578,6.427,4.843,7.017c3.26,0.585,6.404-1.59,7.001-4.845
	C255.783,228.299,253.614,225.161,250.352,224.563z M328.508,240.092c-1.772-0.311-3.461,0.849-3.771,2.617
	c-0.328,1.799,0.849,3.472,2.624,3.817c1.769,0.309,3.456-0.87,3.782-2.636C331.457,242.11,330.301,240.414,328.508,240.092z
	 M342.46,224.563c-3.266-0.585-6.403,1.584-6.991,4.841c-0.601,3.285,1.578,6.427,4.843,7.017c3.26,0.585,6.404-1.59,7-4.845
	C347.892,228.299,345.721,225.161,342.46,224.563z"/>
<path fill="#A5714F" d="M239.19,274.759c-6.44,0.225-6.354,7.625-1.851,10.71c3.452,2.364,0.187,8.029-3.296,5.639
	c-4.561-3.119-7.644-8.585-6.256-14.229c1.346-5.486,5.932-8.463,11.403-8.654C243.405,268.077,243.393,274.612,239.19,274.759z
	 M339.222,268.224c-4.215-0.147-4.199,6.388,0,6.535c6.439,0.225,6.354,7.625,1.85,10.71c-3.452,2.364-0.189,8.029,3.298,5.639
	c4.475-3.064,7.304-8.091,6.362-13.616C349.74,271.691,344.868,268.421,339.222,268.224z"/>
<path fill="#EAB83B" d="M225.112,486.579c-2.173,3.257-4.39,6.641-6.642,10.191c-2.735,4.314-6.083,8.103-9.855,11.048
	c7.465-14.889,2.874-40.578-11.195-59.682c-9.375-12.712-20.748-19.504-30.403-19.444c13.419-5.988,45.568-17.546,65.286-20.898
	C226.16,434.519,221.677,463.643,225.112,486.579z M346.11,407.794c6.143,26.725,10.625,55.848,7.191,78.785
	c2.173,3.257,4.39,6.641,6.642,10.191c2.735,4.314,6.083,8.103,9.855,11.048c-7.465-14.889-2.874-40.578,11.195-59.682
	c9.375-12.712,20.748-19.504,30.403-19.444C397.977,422.704,365.827,411.147,346.11,407.794z M375.142,388.105
	c-0.017-0.006-0.034-0.011-0.051-0.017c-0.48-0.184-0.961-0.39-1.448-0.626l-8.862-7.485c-0.186-0.25-0.355-0.499-0.526-0.749
	c-0.85,1.089-1.767,2.123-2.743,3.106c-1.465,1.297-3.04,2.454-4.719,3.459c-2.081,1.066-4.265,1.901-6.519,2.523
	c-1.457,0.318-5.554,1.773-8.938,1.611c1.08,4.178,2.654,9.964,4.381,16.17c0.621-0.132,13.547-4.854,17.003-6.709
	c2.006-1.077,3.971-2.188,5.782-3.572c1.826-1.394,3.518-2.992,5.099-4.654c0.838-0.881,1.626-1.813,2.375-2.779
	C375.699,388.294,375.422,388.212,375.142,388.105z"/>
<path fill-rule="evenodd" clip-rule="evenodd" fill="#603B1A" d="M259.305,49.735c4.084,12.039-6.383,26.473-23.379,32.239
	c-16.996,5.766-34.086,0.681-38.17-11.357c-4.085-12.039,6.383-26.473,23.379-32.239S255.22,37.696,259.305,49.735z M319.997,49.735
	c-4.084,12.039,6.383,26.473,23.379,32.239c16.996,5.766,34.086,0.681,38.17-11.357c4.085-12.039-6.383-26.473-23.379-32.239
	C341.171,32.611,324.081,37.696,319.997,49.735z M161.432,499.493c15.105,20.497,35.409,25.614,45.346,11.434
	c9.934-14.177,5.746-42.282-9.357-62.791c-15.108-20.485-35.406-25.613-45.339-11.429
	C142.141,450.892,146.33,478.994,161.432,499.493z M426.331,436.707c-9.933-14.184-30.231-9.056-45.339,11.429
	c-15.104,20.509-19.291,48.614-9.358,62.791c9.937,14.18,30.242,9.063,45.346-11.434
	C432.082,478.994,436.271,450.892,426.331,436.707z M242.251,495.62c-5.107-0.602-10.251-0.345-15.383-0.394
	c0.015,0.058,0.028,0.118,0.044,0.176c0.002,0,0.005-0.001,0.007-0.001c-0.002,0-0.005,0.001-0.007,0.001
	c-5.669,10.727-8.527,21.489-6.653,28.157c3.146,11.146,47.159,24.09,62.698,10.817c4.033-3.442,4.255-11.865,3.255-20.931l0,0
	c-0.038-0.345-0.095-0.788-0.164-1.303c-8.324-5.946-17.841-10.18-27.629-13.052C253.152,497.545,247.708,496.263,242.251,495.62z
	 M351.5,495.402c-0.002-0.001-0.005-0.001-0.007-0.001C351.495,495.401,351.498,495.402,351.5,495.402
	c0.016-0.058,0.028-0.118,0.044-0.176c-5.132,0.049-10.275-0.208-15.383,0.394c-5.457,0.643-10.901,1.925-16.167,3.47
	c-9.788,2.872-19.304,7.107-27.629,13.052c-0.069,0.515-0.126,0.958-0.164,1.303v0c-1,9.066-0.779,17.489,3.255,20.931
	c15.539,13.272,59.552,0.329,62.698-10.817C360.027,516.892,357.169,506.129,351.5,495.402z M250.643,113.184
	c-6.04,2.008-15.674,13.733-15.633,20.094c0.05,7.15,10.846,20.966,17.862,22.327c6.933,1.35,22.134-3.624,26.797-8.926
	c5.161-5.867,4.943-25.206,0-31.264C275.067,109.778,257.547,110.884,250.643,113.184z M308.698,106.485
	c-4.728,2.969-2.124,17.165,0,22.327c2.258,5.49,9.87,16.441,15.63,17.867c4.195,1.037,13.274-2.966,16.144-6.199
	c2.851-3.21,6.04-12.75,4.229-16.641C340.477,114.785,317.159,101.169,308.698,106.485z M295.297,146.679
	c-5.043,1.021-19.348,13.563-21.134,18.39c-2.13,5.756,3.026,17.867,7.739,21.803c4.792,4,19.674-0.588,24.566-4.469
	c5.289-4.187,13.415-18.205,11.161-24.562C315.545,151.957,301.418,145.445,295.297,146.679z M214.912,142.209
	c-7.818,3.202-12.19,30.086-4.462,33.499c6.945,3.067,24.437-10.275,24.561-17.867C235.112,151.478,220.802,139.797,214.912,142.209
	z M351.124,142.209c-5.744-0.174-12.651,14.55-11.165,20.1c0.841,3.146,8.036,5.799,11.165,6.7
	c2.875,0.826,10.308,2.727,11.967,0.237C367.182,163.089,358.513,142.432,351.124,142.209z M390.651,334.619
	c4.44,18.29-42.972,22.369-25.87,45.359l8.862,7.485c0.487,0.236,0.968,0.443,1.448,0.626c0.016,0.006,0.034,0.011,0.051,0.017
	c0.469,0.177,0.932,0.333,1.393,0.467C402.885,396.198,416.962,345.025,390.651,334.619z M270.607,366.375
	c-3.679,1.223-9.547,8.365-9.522,12.24c0.03,4.355,6.607,12.771,10.88,13.6c4.223,0.823,13.482-2.207,16.322-5.437
	c3.143-3.574,3.011-15.353,0-19.043C285.484,364.3,274.812,364.973,270.607,366.375z M305.969,362.294
	c-2.88,1.808-1.294,10.455,0,13.6c1.376,3.344,6.012,10.014,9.52,10.883c2.556,0.632,8.085-1.807,9.833-3.776
	c1.737-1.955,3.679-7.766,2.576-10.136C325.326,367.35,311.123,359.056,305.969,362.294z M297.806,386.777
	c-3.072,0.622-11.785,8.261-12.873,11.202c-1.298,3.506,1.843,10.883,4.714,13.28c2.919,2.436,11.984-0.358,14.963-2.722
	c3.221-2.551,8.171-11.089,6.799-14.961C310.14,389.992,301.535,386.025,297.806,386.777z M248.843,384.054
	c-4.762,1.95-7.425,18.326-2.718,20.405c4.231,1.868,14.885-6.259,14.96-10.883C261.147,389.7,252.431,382.585,248.843,384.054z
	 M331.812,384.054c-3.499-0.106-7.706,8.862-6.801,12.243c0.512,1.916,4.895,3.532,6.801,4.081c1.751,0.503,6.279,1.661,7.289,0.144
	C341.592,396.772,336.312,384.19,331.812,384.054z M233.589,478.31c1.296,3.728,8.648,9.601,12.592,9.521
	c4.432-0.092,12.906-6.904,13.69-11.265c0.778-4.31-2.436-13.692-5.763-16.538c-3.682-3.15-15.67-2.849-19.383,0.267
	C231.269,463.196,232.104,474.049,233.589,478.31z M312.635,434.663c1.881,2.906,10.66,1.171,13.843-0.191
	c3.385-1.447,10.109-6.26,10.944-9.843c0.607-2.61-1.952-8.205-3.982-9.956c-2.014-1.74-7.956-3.636-10.353-2.48
	C317.51,414.89,309.267,429.463,312.635,434.663z M239.455,429.173c0.676,3.118,8.574,11.88,11.582,12.946
	c3.587,1.272,11.052-2.029,13.452-4.984c2.439-3.005-0.533-12.193-2.981-15.192c-2.641-3.243-11.401-8.162-15.324-6.71
	C242.555,416.574,238.638,425.389,239.455,429.173z M195.977,432.44c2.052,4.82,18.757,7.301,20.807,2.481
	c1.842-4.332-6.579-15.063-11.287-15.075C201.552,419.837,194.431,428.809,195.977,432.44z M326.53,449.864
	c-0.059,3.563,9.129,7.72,12.557,6.75c1.943-0.548,3.527-5.032,4.059-6.979c0.488-1.79,1.603-6.414,0.045-7.422
	C339.339,439.731,326.606,445.282,326.53,449.864z M306.037,476.316c0.676,3.118,8.574,11.88,11.582,12.946
	c3.587,1.272,11.052-2.029,13.452-4.984c2.439-3.005-0.533-12.193-2.98-15.192c-2.641-3.243-11.401-8.162-15.324-6.71
	C309.137,463.717,305.219,472.531,306.037,476.316z M357.425,433.609c0.5,2.306,6.341,8.786,8.566,9.575
	c2.653,0.941,8.174-1.501,9.949-3.686c1.804-2.223-0.394-9.018-2.205-11.237c-1.954-2.399-8.433-6.037-11.334-4.963
	C359.718,424.29,356.821,430.81,357.425,433.609z"/>
</svg>
